M48
; DRILL file KiCad 10.0.3 date 2026-06-16T14:06:50
; FORMAT={-:-/ absolute / metric / decimal}
; #@! TF.CreationDate,2026-06-16T14:06:50+03:00
; #@! TF.GenerationSoftware,Kicad,Pcbnew,10.0.3
; #@! TF.FileFunction,Plated,1,2,PTH
FMAT,2
METRIC
; #@! TA.AperFunction,Plated,PTH,ViaDrill
T1C0.300
; #@! TA.AperFunction,Plated,PTH,ComponentDrill
T2C0.750
; #@! TA.AperFunction,Plated,PTH,ComponentDrill
T3C0.800
; #@! TA.AperFunction,Plated,PTH,ComponentDrill
T4C0.900
; #@! TA.AperFunction,Plated,PTH,ComponentDrill
T5C1.000
; #@! TA.AperFunction,Plated,PTH,ComponentDrill
T6C1.100
%
G90
G05
T1
X102.0Y-111.5
T2
X149.73Y-106.36
X151.0Y-106.36
X152.27Y-106.36
T3
X101.0Y-143.0
X101.0Y-149.5
X106.0Y-143.0
X106.0Y-149.5
X107.19Y-78.5
X109.38Y-138.5
X114.5Y-100.69
X114.5Y-108.31
X114.5Y-112.0
X114.5Y-119.62
X114.81Y-78.5
X117.0Y-138.5
X118.5Y-85.26
X118.5Y-87.8
X118.5Y-90.34
X118.5Y-92.88
X118.5Y-95.42
X118.5Y-97.96
X118.5Y-100.5
X118.5Y-103.04
X118.5Y-105.58
X118.5Y-108.12
X118.5Y-110.66
X118.5Y-113.2
X118.5Y-115.74
X118.5Y-118.28
X118.5Y-120.82
X118.5Y-123.36
X118.5Y-125.9
X118.5Y-128.44
X118.5Y-130.98
X118.5Y-133.52
X119.0Y-72.5
X119.0Y-76.55
X121.5Y-144.5
X121.5Y-149.38
X124.0Y-72.5
X124.0Y-76.55
X133.74Y-85.26
X133.74Y-87.8
X133.74Y-90.34
X133.74Y-92.88
X133.74Y-95.42
X133.74Y-97.96
X133.74Y-100.5
X133.74Y-103.04
X133.74Y-105.58
X133.74Y-108.12
X133.74Y-110.66
X133.74Y-113.2
X133.74Y-115.74
X133.74Y-118.28
X133.74Y-120.82
X133.74Y-123.36
X133.74Y-125.9
X133.74Y-128.44
X133.74Y-130.98
X133.74Y-133.52
X138.19Y-79.0
X138.5Y-104.0
X138.5Y-111.62
X145.81Y-79.0
X154.88Y-104.2
X162.5Y-104.2
T4
X141.73Y-88.0
X141.73Y-97.5
X144.27Y-88.0
X144.27Y-97.5
T5
X122.46Y-139.0
X125.0Y-139.0
X127.54Y-139.0
X139.2Y-122.5
X146.8Y-122.5
T6
X97.0Y-99.5
X97.0Y-106.0
X99.0Y-129.0
X99.0Y-133.5
X101.5Y-99.5
X101.5Y-106.0
X101.5Y-114.5
X101.5Y-119.0
X101.75Y-86.75
X101.75Y-91.25
X105.5Y-129.0
X105.5Y-133.5
X108.0Y-114.5
X108.0Y-119.0
X108.25Y-86.75
X108.25Y-91.25
M30
