%TF.GenerationSoftware,KiCad,Pcbnew,10.0.3*%
%TF.CreationDate,2026-06-16T14:05:48+03:00*%
%TF.ProjectId,ATmega32_External_Interrupt_Event_System,41546d65-6761-4333-925f-45787465726e,rev?*%
%TF.SameCoordinates,Original*%
%TF.FileFunction,Soldermask,Top*%
%TF.FilePolarity,Negative*%
%FSLAX46Y46*%
G04 Gerber Fmt 4.6, Leading zero omitted, Abs format (unit mm)*
G04 Created by KiCad (PCBNEW 10.0.3) date 2026-06-16 14:05:48*
%MOMM*%
%LPD*%
G01*
G04 APERTURE LIST*
G04 Aperture macros list*
%AMRoundRect*
0 Rectangle with rounded corners*
0 $1 Rounding radius*
0 $2 $3 $4 $5 $6 $7 $8 $9 X,Y pos of 4 corners*
0 Add a 4 corners polygon primitive as box body*
4,1,4,$2,$3,$4,$5,$6,$7,$8,$9,$2,$3,0*
0 Add four circle primitives for the rounded corners*
1,1,$1+$1,$2,$3*
1,1,$1+$1,$4,$5*
1,1,$1+$1,$6,$7*
1,1,$1+$1,$8,$9*
0 Add four rect primitives between the rounded corners*
20,1,$1+$1,$2,$3,$4,$5,0*
20,1,$1+$1,$4,$5,$6,$7,0*
20,1,$1+$1,$6,$7,$8,$9,0*
20,1,$1+$1,$8,$9,$2,$3,0*%
G04 Aperture macros list end*
%ADD10C,1.600000*%
%ADD11C,2.000000*%
%ADD12C,1.500000*%
%ADD13R,2.000000X2.000000*%
%ADD14R,1.800000X1.800000*%
%ADD15C,1.800000*%
%ADD16R,1.050000X1.500000*%
%ADD17O,1.050000X1.500000*%
%ADD18RoundRect,0.250000X-0.550000X-0.550000X0.550000X-0.550000X0.550000X0.550000X-0.550000X0.550000X0*%
%ADD19C,1.700000*%
%ADD20R,1.700000X1.700000*%
G04 APERTURE END LIST*
D10*
%TO.C,C4*%
X106000000Y-149500000D03*
X101000000Y-149500000D03*
%TD*%
D11*
%TO.C,SW3*%
X108000000Y-119000000D03*
X101500000Y-119000000D03*
X108000000Y-114500000D03*
X101500000Y-114500000D03*
%TD*%
D12*
%TO.C,Y1*%
X121500000Y-144500000D03*
X121500000Y-149380000D03*
%TD*%
D11*
%TO.C,MCU-Reset1*%
X99000000Y-129000000D03*
X105500000Y-129000000D03*
X99000000Y-133500000D03*
X105500000Y-133500000D03*
%TD*%
%TO.C,EventPulse1*%
X97000000Y-106000000D03*
X97000000Y-99500000D03*
X101500000Y-106000000D03*
X101500000Y-99500000D03*
%TD*%
D10*
%TO.C,R5*%
X114500000Y-112000000D03*
X114500000Y-119620000D03*
%TD*%
%TO.C,R7*%
X154880000Y-104200000D03*
X162500000Y-104200000D03*
%TD*%
D11*
%TO.C,SW1*%
X108250000Y-91250000D03*
X101750000Y-91250000D03*
X108250000Y-86750000D03*
X101750000Y-86750000D03*
%TD*%
D10*
%TO.C,C3*%
X101000000Y-143000000D03*
X106000000Y-143000000D03*
%TD*%
%TO.C,R3*%
X107190000Y-78500000D03*
X114810000Y-78500000D03*
%TD*%
%TO.C,C2*%
X119000000Y-76550000D03*
X124000000Y-76550000D03*
%TD*%
D13*
%TO.C,BZ1*%
X139200000Y-122500000D03*
D11*
X146800000Y-122500000D03*
%TD*%
D10*
%TO.C,R2*%
X145810000Y-79000000D03*
X138190000Y-79000000D03*
%TD*%
D14*
%TO.C,GREEN*%
X141730000Y-88000000D03*
D15*
X144270000Y-88000000D03*
%TD*%
D16*
%TO.C,Q1*%
X149730000Y-106360000D03*
D17*
X151000000Y-106360000D03*
X152270000Y-106360000D03*
%TD*%
D10*
%TO.C,R4*%
X138500000Y-104000000D03*
X138500000Y-111620000D03*
%TD*%
%TO.C,C1*%
X119000000Y-72500000D03*
X124000000Y-72500000D03*
%TD*%
D18*
%TO.C,U1*%
X118500000Y-85260000D03*
D10*
X118500000Y-87800000D03*
X118500000Y-90340000D03*
X118500000Y-92880000D03*
X118500000Y-95420000D03*
X118500000Y-97960000D03*
X118500000Y-100500000D03*
X118500000Y-103040000D03*
X118500000Y-105580000D03*
X118500000Y-108120000D03*
X118500000Y-110660000D03*
X118500000Y-113200000D03*
X118500000Y-115740000D03*
X118500000Y-118280000D03*
X118500000Y-120820000D03*
X118500000Y-123360000D03*
X118500000Y-125900000D03*
X118500000Y-128440000D03*
X118500000Y-130980000D03*
X118500000Y-133520000D03*
X133740000Y-133520000D03*
X133740000Y-130980000D03*
X133740000Y-128440000D03*
X133740000Y-125900000D03*
X133740000Y-123360000D03*
X133740000Y-120820000D03*
X133740000Y-118280000D03*
X133740000Y-115740000D03*
X133740000Y-113200000D03*
X133740000Y-110660000D03*
X133740000Y-108120000D03*
X133740000Y-105580000D03*
X133740000Y-103040000D03*
X133740000Y-100500000D03*
X133740000Y-97960000D03*
X133740000Y-95420000D03*
X133740000Y-92880000D03*
X133740000Y-90340000D03*
X133740000Y-87800000D03*
X133740000Y-85260000D03*
%TD*%
%TO.C,R1*%
X114500000Y-108310000D03*
X114500000Y-100690000D03*
%TD*%
D14*
%TO.C,RED1*%
X141730000Y-97500000D03*
D15*
X144270000Y-97500000D03*
%TD*%
D19*
%TO.C,J1*%
X122460000Y-139000000D03*
X125000000Y-139000000D03*
D20*
X127540000Y-139000000D03*
%TD*%
D10*
%TO.C,R6*%
X109380000Y-138500000D03*
X117000000Y-138500000D03*
%TD*%
M02*
