%TF.GenerationSoftware,KiCad,Pcbnew,10.0.3*%
%TF.CreationDate,2026-06-16T14:05:48+03:00*%
%TF.ProjectId,ATmega32_External_Interrupt_Event_System,41546d65-6761-4333-925f-45787465726e,rev?*%
%TF.SameCoordinates,Original*%
%TF.FileFunction,Copper,L1,Top*%
%TF.FilePolarity,Positive*%
%FSLAX46Y46*%
G04 Gerber Fmt 4.6, Leading zero omitted, Abs format (unit mm)*
G04 Created by KiCad (PCBNEW 10.0.3) date 2026-06-16 14:05:48*
%MOMM*%
%LPD*%
G01*
G04 APERTURE LIST*
G04 Aperture macros list*
%AMRoundRect*
0 Rectangle with rounded corners*
0 $1 Rounding radius*
0 $2 $3 $4 $5 $6 $7 $8 $9 X,Y pos of 4 corners*
0 Add a 4 corners polygon primitive as box body*
4,1,4,$2,$3,$4,$5,$6,$7,$8,$9,$2,$3,0*
0 Add four circle primitives for the rounded corners*
1,1,$1+$1,$2,$3*
1,1,$1+$1,$4,$5*
1,1,$1+$1,$6,$7*
1,1,$1+$1,$8,$9*
0 Add four rect primitives between the rounded corners*
20,1,$1+$1,$2,$3,$4,$5,0*
20,1,$1+$1,$4,$5,$6,$7,0*
20,1,$1+$1,$6,$7,$8,$9,0*
20,1,$1+$1,$8,$9,$2,$3,0*%
G04 Aperture macros list end*
%TA.AperFunction,ComponentPad*%
%ADD10C,1.600000*%
%TD*%
%TA.AperFunction,ComponentPad*%
%ADD11C,2.000000*%
%TD*%
%TA.AperFunction,ComponentPad*%
%ADD12C,1.500000*%
%TD*%
%TA.AperFunction,ComponentPad*%
%ADD13R,2.000000X2.000000*%
%TD*%
%TA.AperFunction,ComponentPad*%
%ADD14R,1.800000X1.800000*%
%TD*%
%TA.AperFunction,ComponentPad*%
%ADD15C,1.800000*%
%TD*%
%TA.AperFunction,ComponentPad*%
%ADD16R,1.050000X1.500000*%
%TD*%
%TA.AperFunction,ComponentPad*%
%ADD17O,1.050000X1.500000*%
%TD*%
%TA.AperFunction,ComponentPad*%
%ADD18RoundRect,0.250000X-0.550000X-0.550000X0.550000X-0.550000X0.550000X0.550000X-0.550000X0.550000X0*%
%TD*%
%TA.AperFunction,ComponentPad*%
%ADD19C,1.700000*%
%TD*%
%TA.AperFunction,ComponentPad*%
%ADD20R,1.700000X1.700000*%
%TD*%
%TA.AperFunction,ViaPad*%
%ADD21C,0.600000*%
%TD*%
%TA.AperFunction,Conductor*%
%ADD22C,0.200000*%
%TD*%
G04 APERTURE END LIST*
D10*
%TO.P,C4,2*%
%TO.N,GND*%
X106000000Y-149500000D03*
%TO.P,C4,1*%
%TO.N,Net-(U1-XTAL2)*%
X101000000Y-149500000D03*
%TD*%
D11*
%TO.P,SW3,2,2_2*%
%TO.N,GND*%
X108000000Y-119000000D03*
X101500000Y-119000000D03*
%TO.P,SW3,1,1_1*%
%TO.N,/RECOVERY_INT2*%
X108000000Y-114500000D03*
X101500000Y-114500000D03*
%TD*%
D12*
%TO.P,Y1,2,2_2*%
%TO.N,Net-(U1-XTAL1)*%
X121500000Y-144500000D03*
%TO.P,Y1,1,1_1*%
%TO.N,Net-(U1-XTAL2)*%
X121500000Y-149380000D03*
%TD*%
D11*
%TO.P,MCU-Reset1,2,2_2*%
%TO.N,Net-(U1-~{RESET})*%
X99000000Y-129000000D03*
X105500000Y-129000000D03*
%TO.P,MCU-Reset1,1,1_1*%
%TO.N,GND*%
X99000000Y-133500000D03*
X105500000Y-133500000D03*
%TD*%
%TO.P,EventPulse1,2,2_2*%
%TO.N,GND*%
X97000000Y-106000000D03*
X97000000Y-99500000D03*
%TO.P,EventPulse1,1,1_1*%
%TO.N,/ EVENT_INT1*%
X101500000Y-106000000D03*
X101500000Y-99500000D03*
%TD*%
D10*
%TO.P,R5,2*%
%TO.N,+5V*%
X114500000Y-112000000D03*
%TO.P,R5,1*%
%TO.N,/EMERGENCY_INT0*%
X114500000Y-119620000D03*
%TD*%
%TO.P,R7,1*%
%TO.N,+5V*%
X154880000Y-104200000D03*
%TO.P,R7,2*%
%TO.N,/RECOVERY_INT2*%
X162500000Y-104200000D03*
%TD*%
D11*
%TO.P,SW1,2,2_2*%
%TO.N,GND*%
X108250000Y-91250000D03*
X101750000Y-91250000D03*
%TO.P,SW1,1,1_1*%
%TO.N,/EMERGENCY_INT0*%
X108250000Y-86750000D03*
X101750000Y-86750000D03*
%TD*%
D10*
%TO.P,C3,1*%
%TO.N,GND*%
X101000000Y-143000000D03*
%TO.P,C3,2*%
%TO.N,Net-(U1-XTAL1)*%
X106000000Y-143000000D03*
%TD*%
%TO.P,R3,1*%
%TO.N,Net-(RED1-A)*%
X107190000Y-78500000D03*
%TO.P,R3,2*%
%TO.N,/LED_STOP*%
X114810000Y-78500000D03*
%TD*%
%TO.P,C2,1*%
%TO.N,GND*%
X119000000Y-76550000D03*
%TO.P,C2,2*%
%TO.N,+5V*%
X124000000Y-76550000D03*
%TD*%
D13*
%TO.P,BZ1,1,+_1*%
%TO.N,+5V*%
X139200000Y-122500000D03*
D11*
%TO.P,BZ1,2,-_2*%
%TO.N,Net-(BZ1--)*%
X146800000Y-122500000D03*
%TD*%
D10*
%TO.P,R2,1*%
%TO.N,Net-(GREEN1-A)*%
X145810000Y-79000000D03*
%TO.P,R2,2*%
%TO.N,/LED_NORMAL*%
X138190000Y-79000000D03*
%TD*%
D14*
%TO.P,GREEN,1,K_1*%
%TO.N,GND*%
X141730000Y-88000000D03*
D15*
%TO.P,GREEN,2,A_2*%
%TO.N,Net-(GREEN1-A)*%
X144270000Y-88000000D03*
%TD*%
D16*
%TO.P,Q1,1,B_1*%
%TO.N,Net-(Q1-B)*%
X149730000Y-106360000D03*
D17*
%TO.P,Q1,2,C_2*%
%TO.N,Net-(BZ1--)*%
X151000000Y-106360000D03*
%TO.P,Q1,3,E_3*%
%TO.N,GND*%
X152270000Y-106360000D03*
%TD*%
D10*
%TO.P,R4,1*%
%TO.N,/BUZZER*%
X138500000Y-104000000D03*
%TO.P,R4,2*%
%TO.N,Net-(Q1-B)*%
X138500000Y-111620000D03*
%TD*%
%TO.P,C1,1*%
%TO.N,GND*%
X119000000Y-72500000D03*
%TO.P,C1,2*%
%TO.N,+5V*%
X124000000Y-72500000D03*
%TD*%
D18*
%TO.P,U1,1,PB0_1*%
%TO.N,/LED_NORMAL*%
X118500000Y-85260000D03*
D10*
%TO.P,U1,2,PB1_2*%
%TO.N,/LED_STOP*%
X118500000Y-87800000D03*
%TO.P,U1,3,PB2_3*%
%TO.N,/RECOVERY_INT2*%
X118500000Y-90340000D03*
%TO.P,U1,4,PB3_4*%
%TO.N,/BUZZER*%
X118500000Y-92880000D03*
%TO.P,U1,5,PB4_5*%
%TO.N,unconnected-(U1-PB4-Pad5)*%
X118500000Y-95420000D03*
%TO.P,U1,6,PB5_6*%
%TO.N,unconnected-(U1-PB5-Pad6)*%
X118500000Y-97960000D03*
%TO.P,U1,7,PB6_7*%
%TO.N,unconnected-(U1-PB6-Pad7)*%
X118500000Y-100500000D03*
%TO.P,U1,8,PB7_8*%
%TO.N,unconnected-(U1-PB7-Pad8)*%
X118500000Y-103040000D03*
%TO.P,U1,9,~{RESET}_9*%
%TO.N,Net-(U1-~{RESET})*%
X118500000Y-105580000D03*
%TO.P,U1,10,VCC_10*%
%TO.N,+5V*%
X118500000Y-108120000D03*
%TO.P,U1,11,GND_11*%
%TO.N,GND*%
X118500000Y-110660000D03*
%TO.P,U1,12,XTAL2_12*%
%TO.N,Net-(U1-XTAL2)*%
X118500000Y-113200000D03*
%TO.P,U1,13,XTAL1_13*%
%TO.N,Net-(U1-XTAL1)*%
X118500000Y-115740000D03*
%TO.P,U1,14,PD0_14*%
%TO.N,unconnected-(U1-PD0-Pad14)*%
X118500000Y-118280000D03*
%TO.P,U1,15,PD1_15*%
%TO.N,/SERIAL_TX*%
X118500000Y-120820000D03*
%TO.P,U1,16,PD2_16*%
%TO.N,/EMERGENCY_INT0*%
X118500000Y-123360000D03*
%TO.P,U1,17,PD3_17*%
%TO.N,/ EVENT_INT1*%
X118500000Y-125900000D03*
%TO.P,U1,18,PD4_18*%
%TO.N,unconnected-(U1-PD4-Pad18)*%
X118500000Y-128440000D03*
%TO.P,U1,19,PD5_19*%
%TO.N,unconnected-(U1-PD5-Pad19)*%
X118500000Y-130980000D03*
%TO.P,U1,20,PD6_20*%
%TO.N,unconnected-(U1-PD6-Pad20)*%
X118500000Y-133520000D03*
%TO.P,U1,21,PD7_21*%
%TO.N,unconnected-(U1-PD7-Pad21)*%
X133740000Y-133520000D03*
%TO.P,U1,22,PC0_22*%
%TO.N,unconnected-(U1-PC0-Pad22)*%
X133740000Y-130980000D03*
%TO.P,U1,23,PC1_23*%
%TO.N,unconnected-(U1-PC1-Pad23)*%
X133740000Y-128440000D03*
%TO.P,U1,24,PC2_24*%
%TO.N,unconnected-(U1-PC2-Pad24)*%
X133740000Y-125900000D03*
%TO.P,U1,25,PC3_25*%
%TO.N,unconnected-(U1-PC3-Pad25)*%
X133740000Y-123360000D03*
%TO.P,U1,26,PC4_26*%
%TO.N,unconnected-(U1-PC4-Pad26)*%
X133740000Y-120820000D03*
%TO.P,U1,27,PC5_27*%
%TO.N,unconnected-(U1-PC5-Pad27)*%
X133740000Y-118280000D03*
%TO.P,U1,28,PC6_28*%
%TO.N,unconnected-(U1-PC6-Pad28)*%
X133740000Y-115740000D03*
%TO.P,U1,29,PC7_29*%
%TO.N,unconnected-(U1-PC7-Pad29)*%
X133740000Y-113200000D03*
%TO.P,U1,30,AVCC_30*%
%TO.N,+5V*%
X133740000Y-110660000D03*
%TO.P,U1,31,GND_31*%
%TO.N,GND*%
X133740000Y-108120000D03*
%TO.P,U1,32,AREF_32*%
%TO.N,unconnected-(U1-AREF-Pad32)*%
X133740000Y-105580000D03*
%TO.P,U1,33,PA7_33*%
%TO.N,unconnected-(U1-PA7-Pad33)*%
X133740000Y-103040000D03*
%TO.P,U1,34,PA6_34*%
%TO.N,unconnected-(U1-PA6-Pad34)*%
X133740000Y-100500000D03*
%TO.P,U1,35,PA5_35*%
%TO.N,unconnected-(U1-PA5-Pad35)*%
X133740000Y-97960000D03*
%TO.P,U1,36,PA4_36*%
%TO.N,unconnected-(U1-PA4-Pad36)*%
X133740000Y-95420000D03*
%TO.P,U1,37,PA3_37*%
%TO.N,unconnected-(U1-PA3-Pad37)*%
X133740000Y-92880000D03*
%TO.P,U1,38,PA2_38*%
%TO.N,unconnected-(U1-PA2-Pad38)*%
X133740000Y-90340000D03*
%TO.P,U1,39,PA1_39*%
%TO.N,unconnected-(U1-PA1-Pad39)*%
X133740000Y-87800000D03*
%TO.P,U1,40,PA0_40*%
%TO.N,unconnected-(U1-PA0-Pad40)*%
X133740000Y-85260000D03*
%TD*%
%TO.P,R1,1*%
%TO.N,Net-(U1-~{RESET})*%
X114500000Y-108310000D03*
%TO.P,R1,2*%
%TO.N,+5V*%
X114500000Y-100690000D03*
%TD*%
D14*
%TO.P,RED1,1,K_1*%
%TO.N,GND*%
X141730000Y-97500000D03*
D15*
%TO.P,RED1,2,A_2*%
%TO.N,Net-(RED1-A)*%
X144270000Y-97500000D03*
%TD*%
D19*
%TO.P,J1,3,Pin_3_3*%
%TO.N,GND*%
X122460000Y-139000000D03*
%TO.P,J1,2,Pin_2_2*%
%TO.N,/SERIAL_TX*%
X125000000Y-139000000D03*
D20*
%TO.P,J1,1,Pin_1_1*%
%TO.N,+5V*%
X127540000Y-139000000D03*
%TD*%
D10*
%TO.P,R6,1*%
%TO.N,/ EVENT_INT1*%
X109380000Y-138500000D03*
%TO.P,R6,2*%
%TO.N,+5V*%
X117000000Y-138500000D03*
%TD*%
D21*
%TO.N,/RECOVERY_INT2*%
X102000000Y-111500000D03*
%TD*%
%TO.N,GND*%
D22*
X129090000Y-121250000D02*
X118500000Y-110660000D01*
X121934925Y-150430000D02*
X129090000Y-143274925D01*
X129090000Y-143274925D02*
X129090000Y-121250000D01*
X106930000Y-150430000D02*
X121934925Y-150430000D01*
X106000000Y-149500000D02*
X106930000Y-150430000D01*
%TO.N,Net-(U1-XTAL2)*%
X120520000Y-148400000D02*
X121500000Y-149380000D01*
X102100000Y-148400000D02*
X120520000Y-148400000D01*
X101000000Y-149500000D02*
X102100000Y-148400000D01*
%TO.N,GND*%
X106000000Y-149500000D02*
X106500000Y-149500000D01*
%TO.N,/RECOVERY_INT2*%
X101500000Y-112000000D02*
X102000000Y-111500000D01*
X101500000Y-114500000D02*
X101500000Y-112000000D01*
%TO.N,GND*%
X103500000Y-101500000D02*
X103500000Y-93000000D01*
%TO.N,/RECOVERY_INT2*%
X108000000Y-100840000D02*
X118500000Y-90340000D01*
X119830000Y-91670000D02*
X122160000Y-94000000D01*
%TO.N,GND*%
X103500000Y-93000000D02*
X101750000Y-91250000D01*
X97000000Y-106000000D02*
X97000000Y-99500000D01*
%TO.N,/ EVENT_INT1*%
X101500000Y-99500000D02*
X101500000Y-106000000D01*
X103000000Y-106000000D02*
X103500000Y-106500000D01*
X101500000Y-106000000D02*
X103000000Y-106000000D01*
X103500000Y-106500000D02*
X103500000Y-125161522D01*
%TO.N,Net-(U1-~{RESET})*%
X99000000Y-129000000D02*
X105500000Y-129000000D01*
X105500000Y-129220000D02*
X108280000Y-132000000D01*
X105500000Y-129000000D02*
X105500000Y-129220000D01*
X117400000Y-106680000D02*
X118500000Y-105580000D01*
X117400000Y-121275635D02*
X117400000Y-106680000D01*
X118384365Y-122260000D02*
X117400000Y-121275635D01*
X118955635Y-122260000D02*
X118384365Y-122260000D01*
X119600000Y-122904365D02*
X118955635Y-122260000D01*
X119600000Y-126355635D02*
X119600000Y-122904365D01*
X118955635Y-127000000D02*
X119600000Y-126355635D01*
X118044366Y-127000000D02*
X118955635Y-127000000D01*
X117400000Y-127644366D02*
X118044366Y-127000000D01*
X117400000Y-132035635D02*
X117400000Y-127644366D01*
X109835635Y-139600000D02*
X117400000Y-132035635D01*
X108924365Y-139600000D02*
X109835635Y-139600000D01*
X108280000Y-138955635D02*
X108924365Y-139600000D01*
X108280000Y-132000000D02*
X108280000Y-138955635D01*
%TO.N,GND*%
X105500000Y-133500000D02*
X99000000Y-133500000D01*
%TO.N,/ EVENT_INT1*%
X109380000Y-131041522D02*
X109380000Y-138500000D01*
X103500000Y-125161522D02*
X109380000Y-131041522D01*
%TO.N,+5V*%
X122900000Y-73600000D02*
X124000000Y-72500000D01*
X100050000Y-82450000D02*
X108900000Y-73600000D01*
X100050000Y-104950000D02*
X100050000Y-82450000D01*
X97538478Y-107461522D02*
X100050000Y-104950000D01*
X97538478Y-144094113D02*
X97538478Y-107461522D01*
X108900000Y-73600000D02*
X122900000Y-73600000D01*
X100044365Y-146600000D02*
X97538478Y-144094113D01*
X120990000Y-146600000D02*
X100044365Y-146600000D01*
X127540000Y-140050000D02*
X120990000Y-146600000D01*
X127540000Y-139000000D02*
X127540000Y-140050000D01*
%TO.N,GND*%
X100450000Y-89950000D02*
X101750000Y-91250000D01*
X100450000Y-86211522D02*
X100450000Y-89950000D01*
X109550000Y-90450000D02*
X109550000Y-86211522D01*
X109550000Y-86211522D02*
X108788478Y-85450000D01*
X108250000Y-91250000D02*
X108500000Y-91500000D01*
X108500000Y-91500000D02*
X109550000Y-90450000D01*
X108788478Y-85450000D02*
X101211522Y-85450000D01*
X101211522Y-85450000D02*
X100450000Y-86211522D01*
%TO.N,Net-(U1-XTAL2)*%
X128690000Y-142190000D02*
X121500000Y-149380000D01*
X128690000Y-123390000D02*
X128690000Y-142190000D01*
X118500000Y-113200000D02*
X128690000Y-123390000D01*
%TO.N,+5V*%
X105300000Y-141500000D02*
X104000000Y-140200000D01*
X114000000Y-141500000D02*
X105300000Y-141500000D01*
X117000000Y-138500000D02*
X114000000Y-141500000D01*
%TO.N,GND*%
X102100000Y-141900000D02*
X101000000Y-143000000D01*
X119560000Y-141900000D02*
X102100000Y-141900000D01*
X122460000Y-139000000D02*
X119560000Y-141900000D01*
%TO.N,Net-(U1-XTAL1)*%
X126150000Y-139850000D02*
X121500000Y-144500000D01*
X126150000Y-123390000D02*
X126150000Y-139850000D01*
X118500000Y-115740000D02*
X126150000Y-123390000D01*
X107500000Y-144500000D02*
X106000000Y-143000000D01*
X121500000Y-144500000D02*
X107500000Y-144500000D01*
%TO.N,/SERIAL_TX*%
X125000000Y-127320000D02*
X118500000Y-120820000D01*
X125000000Y-139000000D02*
X125000000Y-127320000D01*
%TO.N,+5V*%
X139136016Y-145136016D02*
X132672032Y-151600000D01*
X139540000Y-140460000D02*
X139200000Y-140120000D01*
X139200000Y-140120000D02*
X139200000Y-122500000D01*
X139540000Y-140500000D02*
X139540000Y-140460000D01*
X139500000Y-140500000D02*
X139540000Y-140540000D01*
X139540000Y-140500000D02*
X139500000Y-140500000D01*
X139540000Y-140540000D02*
X139540000Y-144732032D01*
X139540000Y-144732032D02*
X139136016Y-145136016D01*
X100044365Y-151600000D02*
X132672032Y-151600000D01*
X99400000Y-150955635D02*
X100044365Y-151600000D01*
X99400000Y-143044365D02*
X99400000Y-150955635D01*
X102244365Y-140200000D02*
X99400000Y-143044365D01*
X104000000Y-140200000D02*
X102244365Y-140200000D01*
X154880000Y-116258478D02*
X154880000Y-104200000D01*
X147338478Y-123800000D02*
X154880000Y-116258478D01*
X140500000Y-123800000D02*
X147338478Y-123800000D01*
X139200000Y-122500000D02*
X140500000Y-123800000D01*
X139200000Y-116120000D02*
X133740000Y-110660000D01*
X139200000Y-122500000D02*
X139200000Y-116120000D01*
X155980000Y-105300000D02*
X154880000Y-104200000D01*
X162955635Y-105300000D02*
X155980000Y-105300000D01*
X163600000Y-104655635D02*
X162955635Y-105300000D01*
X163600000Y-95234365D02*
X163600000Y-104655635D01*
X144915635Y-76550000D02*
X163600000Y-95234365D01*
X124000000Y-76550000D02*
X144915635Y-76550000D01*
%TO.N,GND*%
X100500000Y-143500000D02*
X101000000Y-143000000D01*
%TO.N,+5V*%
X124000000Y-76550000D02*
X124000000Y-72500000D01*
X118955635Y-101600000D02*
X115410000Y-101600000D01*
X119600000Y-102244365D02*
X118955635Y-101600000D01*
X119600000Y-107020000D02*
X119600000Y-102244365D01*
X118500000Y-108120000D02*
X119600000Y-107020000D01*
X115410000Y-101600000D02*
X114500000Y-100690000D01*
X131200000Y-108120000D02*
X133740000Y-110660000D01*
X118500000Y-108120000D02*
X131200000Y-108120000D01*
X112000000Y-103190000D02*
X114500000Y-100690000D01*
X112000000Y-109500000D02*
X114500000Y-112000000D01*
X112000000Y-103190000D02*
X112000000Y-109500000D01*
%TO.N,/EMERGENCY_INT0*%
X108250000Y-86750000D02*
X101750000Y-86750000D01*
%TO.N,Net-(Q1-B)*%
X138500000Y-111620000D02*
X144470000Y-111620000D01*
X144470000Y-111620000D02*
X149730000Y-106360000D01*
%TO.N,Net-(U1-~{RESET})*%
X117230000Y-105580000D02*
X114500000Y-108310000D01*
X118500000Y-105580000D02*
X117230000Y-105580000D01*
%TO.N,/BUZZER*%
X130100000Y-104480000D02*
X118500000Y-92880000D01*
X138020000Y-104480000D02*
X130100000Y-104480000D01*
X138500000Y-104000000D02*
X138020000Y-104480000D01*
%TO.N,Net-(BZ1--)*%
X151000000Y-118300000D02*
X151000000Y-106360000D01*
X146800000Y-122500000D02*
X151000000Y-118300000D01*
%TO.N,/EMERGENCY_INT0*%
X114760000Y-119620000D02*
X114500000Y-119620000D01*
X118500000Y-123360000D02*
X114760000Y-119620000D01*
%TO.N,/ EVENT_INT1*%
X109380000Y-135020000D02*
X109380000Y-138500000D01*
X118500000Y-125900000D02*
X109380000Y-135020000D01*
%TO.N,/EMERGENCY_INT0*%
X106700000Y-88300000D02*
X108250000Y-86750000D01*
%TO.N,Net-(RED1-A)*%
X117690000Y-89000000D02*
X135770000Y-89000000D01*
X135770000Y-89000000D02*
X144270000Y-97500000D01*
X107190000Y-78500000D02*
X117690000Y-89000000D01*
%TO.N,/LED_STOP*%
X118500000Y-88000000D02*
X114810000Y-84310000D01*
X118500000Y-87800000D02*
X118500000Y-88000000D01*
X114810000Y-84310000D02*
X114810000Y-78500000D01*
%TO.N,Net-(GREEN1-A)*%
X145810000Y-86460000D02*
X144270000Y-88000000D01*
X145810000Y-79000000D02*
X145810000Y-86460000D01*
%TO.N,/LED_NORMAL*%
X131930000Y-85260000D02*
X138190000Y-79000000D01*
X118500000Y-85260000D02*
X131930000Y-85260000D01*
%TO.N,/RECOVERY_INT2*%
X118500000Y-90340000D02*
X119830000Y-91670000D01*
X122160000Y-94000000D02*
X135830000Y-94000000D01*
X135830000Y-94000000D02*
X144930000Y-103100000D01*
X144930000Y-103100000D02*
X161400000Y-103100000D01*
X161400000Y-103100000D02*
X162500000Y-104200000D01*
%TO.N,/EMERGENCY_INT0*%
X106700000Y-115038478D02*
X106700000Y-88300000D01*
X118500000Y-123360000D02*
X115021522Y-123360000D01*
X115021522Y-123360000D02*
X106700000Y-115038478D01*
%TO.N,GND*%
X104800000Y-102800000D02*
X103500000Y-101500000D01*
X104800000Y-115800000D02*
X104800000Y-102800000D01*
X108000000Y-119000000D02*
X104800000Y-115800000D01*
%TO.N,/RECOVERY_INT2*%
X108000000Y-114500000D02*
X108000000Y-100840000D01*
%TD*%
M02*
